<svg data-icon-name="temperature" data-style="flat-line" icon_origin_id="25009" viewBox="0 0 24 24" xmlns="http://www.w3.org/2000/svg" data-name="Line Color" id="temperature" class="icon flat-line" width="32" height="32"><path style="fill: rgb(247, 145, 2); stroke-width: 1.5;" d="M14,11.41V5a2,2,0,0,0-2-2,2,2,0,0,0-2,2v6.41a5,5,0,1,0,4,0ZM12,18a2,2,0,1,1,2-2A2,2,0,0,1,12,18Z" id="secondary"></path><path style="fill: none; stroke: rgb(100, 91, 91); stroke-linecap: round; stroke-linejoin: round; stroke-width: 1.5;" d="M14,16a2,2,0,1,1-2-2A2,2,0,0,1,14,16ZM7,16a5,5,0,1,0,7-4.59V5a2,2,0,0,0-2-2,2,2,0,0,0-2,2v6.41A5,5,0,0,0,7,16Z" id="primary"></path></svg>