<svg data-icon-name="balance-scale-right" data-style="flat-line" icon_origin_id="15896" viewBox="0 0 24 24" xmlns="http://www.w3.org/2000/svg" data-name="Flat Line" id="balance-scale-right" class="icon flat-line" width="32" height="32"><path style="fill: rgb(2, 247, 52); stroke-width: 1.5;" d="M18,20h0a3,3,0,0,1-3-3V16h6v1A3,3,0,0,1,18,20ZM6,21H6a3,3,0,0,0,3-3V17H3v1A3,3,0,0,0,6,21Z" id="secondary"></path><path style="fill: none; stroke: rgb(100, 91, 91); stroke-linecap: round; stroke-linejoin: round; stroke-width: 1.5;" d="M12,3V5m8.86-.56L13,5.83m-2,.34L3.14,7.56M21,16,18,5,15,16M9,17,6,7.06,3,17" id="primary"></path><circle style="fill: none; stroke: rgb(100, 91, 91); stroke-linecap: round; stroke-linejoin: round; stroke-width: 1.5;" r="1" cy="6" cx="12" data-name="primary" id="primary-2"></circle><path style="fill: none; stroke: rgb(100, 91, 91); stroke-linecap: round; stroke-linejoin: round; stroke-width: 1.5;" d="M18,20h0a3,3,0,0,1-3-3V16h6v1A3,3,0,0,1,18,20ZM6,21H6a3,3,0,0,0,3-3V17H3v1A3,3,0,0,0,6,21Z" data-name="primary" id="primary-3"></path></svg>